<svg width="48" height="48" viewBox="0 0 48 48" fill="none" xmlns="http://www.w3.org/2000/svg">
<g clip-path="url(#clip0_2017_41)">
<path d="M25.791 19.6729L25.8779 19.9707C26.1051 20.6578 26.4902 21.2841 27.0039 21.7979C27.591 22.3849 28.3251 22.8043 29.1289 23.0117L36.0869 24.8047L29.1299 26.5977C28.3259 26.8051 27.591 27.2244 27.0039 27.8115C26.4902 28.3253 26.1051 28.9516 25.8779 29.6387L25.791 29.9365L23.9961 36.8936L22.2041 29.9375L22.1162 29.6387C21.889 28.9516 21.5039 28.3252 20.9902 27.8115C20.4765 27.2978 19.8502 26.9127 19.1631 26.6855L18.8652 26.5977L11.9082 24.8037L18.8652 23.0098L19.1631 22.9229C19.85 22.6959 20.4755 22.3103 20.9893 21.7969C21.5763 21.2102 21.9963 20.4773 22.2041 19.6738L23.9971 12.7168L25.791 19.6729Z" fill="#89CCAC"/>
<path fill-rule="evenodd" clip-rule="evenodd" d="M24.0039 0C37.2585 0.000263883 48.0039 10.7453 48.0039 24C48.0039 37.2547 37.2585 47.9997 24.0039 48C10.7491 48 0.00390625 37.2548 0.00390625 24C0.00390625 10.7452 10.7491 0 24.0039 0ZM23.998 7.57129C23.5615 7.5713 23.1355 7.69648 22.7695 7.92969L22.6162 8.03613C22.2683 8.30007 22.0042 8.65728 21.8535 9.06445L21.7959 9.24121L19.2988 18.9238C19.2251 19.208 19.0767 19.4673 18.8691 19.6748C18.7132 19.8306 18.5281 19.9537 18.3252 20.0361L18.1162 20.1055L8.46387 22.5957L8.42871 22.6055C8.00999 22.7244 7.63477 22.9593 7.34668 23.2822L7.22852 23.4258C6.96602 23.7732 6.80956 24.1877 6.77441 24.6191L6.7666 24.8047L6.77441 24.9902C6.80956 25.4217 6.96602 25.8362 7.22852 26.1836C7.52849 26.5805 7.95015 26.869 8.42871 27.0049L8.46387 27.0137L18.1162 29.5029L18.3242 29.5723C18.5272 29.6548 18.7131 29.7766 18.8691 29.9326C19.0251 30.0887 19.148 30.2745 19.2305 30.4775L19.2988 30.6865L21.7861 40.3379C21.7887 40.3478 21.7922 40.3583 21.7949 40.3682L21.8516 40.5449C22.0022 40.952 22.2664 41.3093 22.6143 41.5732C23.0117 41.8747 23.4973 42.038 23.9961 42.0381C24.4951 42.0381 24.9814 41.8748 25.3789 41.5732C25.7762 41.2718 26.0637 40.8484 26.1982 40.3682C26.201 40.3583 26.2045 40.3478 26.207 40.3379L28.6953 30.6865C28.7688 30.4016 28.9179 30.1407 29.126 29.9326C29.334 29.7248 29.5942 29.5764 29.8789 29.5029L29.8779 29.502L39.5303 27.0156C39.5384 27.0135 39.5466 27.011 39.5547 27.0088L39.7334 26.9521C40.1421 26.8025 40.5013 26.5387 40.7666 26.1904C41.0698 25.7923 41.2334 25.3051 41.2334 24.8047C41.2334 24.3669 41.1074 23.9399 40.873 23.5732L40.7666 23.4199L40.6465 23.2754C40.397 22.9982 40.0836 22.7855 39.7334 22.6572L39.5547 22.6006L39.5303 22.5938L29.8779 20.1064C29.5932 20.033 29.334 19.8846 29.126 19.6768C28.9699 19.5207 28.8472 19.3349 28.7646 19.1318L28.6953 18.9238L26.2002 9.24121L26.1426 9.06445C26.0135 8.71572 25.8013 8.40348 25.5244 8.15527L25.3799 8.03613L25.2266 7.92969C24.9129 7.72987 24.5552 7.60945 24.1846 7.5791L23.998 7.57129ZM11.4102 31.1709C10.582 31.1711 9.91031 31.8427 9.91016 32.6709V32.7441H9.83691C9.00878 32.7444 8.33707 33.416 8.33691 34.2441C8.33691 35.0724 9.00868 35.7439 9.83691 35.7441H9.91016V35.8174C9.91016 36.6457 10.5819 37.3171 11.4102 37.3174C12.2386 37.3174 12.9102 36.6458 12.9102 35.8174V35.7441H12.9834L13.1367 35.7363C13.8932 35.6596 14.4834 35.0209 14.4834 34.2441C14.4833 33.4676 13.8931 32.8287 13.1367 32.752L12.9834 32.7441H12.9102V32.6709C12.91 31.8426 12.2385 31.1709 11.4102 31.1709ZM36.584 9.14453C35.7556 9.14453 35.0841 9.81623 35.084 10.6445V12.292H33.4375C32.6091 12.292 31.9375 12.9636 31.9375 13.792C31.9378 14.6202 32.6092 15.292 33.4375 15.292H35.084V16.9375C35.084 17.7659 35.7556 18.4375 36.584 18.4375C37.4123 18.4373 38.084 17.7658 38.084 16.9375V15.292H39.7305L39.8838 15.2842C40.64 15.2074 41.2302 14.5684 41.2305 13.792C41.2305 13.0154 40.6401 12.3767 39.8838 12.2998L39.7305 12.292H38.084V10.6445C38.0838 9.81632 37.4122 9.14468 36.584 9.14453Z" fill="#89CCAC"/>
</g>
<defs>
<clipPath id="clip0_2017_41">
<rect width="48" height="48" fill="white"/>
</clipPath>
</defs>
</svg>

